<svg xmlns="http://www.w3.org/2000/svg" viewBox="0 0 333 401"><path fill="#CF2D28" d="M285.7 257.3C229.2 355.8 189.5 401 166.8 401c-22.7 0-62.4-45.2-118.9-143.7C-84.1 27 93.9 0 166.4 0s251.2 27 119.3 257.3z"/><path fill="#AF2024" d="M280.8 255c-54.1 94.5-92.2 137.8-114 137.8-21.8 0-59.9-43.3-114-137.8C-73.8 34.1 96.9 8.2 166.4 8.2c69.6 0 241 25.9 114.4 246.8z"/><path fill="#fff" d="M109.7 160.6c4 5 11 8.3 18.9 8.3 12.3 0 22.3-7.9 22.3-17.7 0-9.8-10-17.7-22.3-17.7-6.9 1.4-9.7 3.1-11.2-1 6.1-18.4 15.9-22.6 32.7-22.6 22.3 0 32.9 20.3 32.9 48.5-6.2 64.6-69.8 97.2-83.6 107.2 1.9 4.4 1.8 4.3 1.8 4.1 64.3-29.2 112.1-69.3 112.1-108.7 0-31.3-19.9-59.5-63.6-58.6-26.3-.1-57.8 29.1-40 58.2zm111.2-30.5c0 6.1 4.9 11 11 11s11-4.9 11-11-4.9-11-11-11-11 5-11 11zm0 46.4c0 6.1 4.9 11 11 11s11-4.9 11-11-4.9-11-11-11-11 4.9-11 11z"/></svg>