<svg version="1.1" xmlns="http://www.w3.org/2000/svg" xmlns:xlink="http://www.w3.org/1999/xlink" x="0px" y="0px" viewBox="0 0 333 401" xml:space="preserve">
<path fill="#CF2D28" d="M285.7,257.3C229.2,355.8,189.5,401,166.8,401c-22.7,0-62.4-45.2-118.9-143.7C-84.1,27,93.9,0,166.4,0
	C238.9,0,417.6,27,285.7,257.3z"/>
<path fill="#AF2024" d="M280.8,255c-54.1,94.5-92.2,137.8-114,137.8c-21.8,0-59.9-43.3-114-137.8C-73.8,34.1,96.9,8.2,166.4,8.2
	C236,8.2,407.4,34.1,280.8,255z"/>
<g id="layer1">
	<path id="path3" fill="#FFFFFF" d="M109.7,160.6c4,5,11,8.3,18.9,8.3c12.3,0,22.3-7.9,22.3-17.7c0-9.8-10-17.7-22.3-17.7
		c-6.9,1.4-9.7,3.1-11.2-1c6.1-18.4,15.9-22.6,32.7-22.6c22.3,0,32.9,20.3,32.9,48.5c-6.2,64.6-69.8,97.2-83.6,107.2
		c1.9,4.4,1.8,4.3,1.8,4.1c64.3-29.2,112.1-69.3,112.1-108.7c0-31.3-19.9-59.5-63.6-58.6C123.4,102.3,91.9,131.5,109.7,160.6
		L109.7,160.6z M220.9,130.1c0,6.1,4.9,11,11,11c6.1,0,11-4.9,11-11c0-6.1-4.9-11-11-11C225.8,119.1,220.9,124.1,220.9,130.1z
		 M220.9,176.5c0,6.1,4.9,11,11,11c6.1,0,11-4.9,11-11c0-6.1-4.9-11-11-11C225.8,165.5,220.9,170.4,220.9,176.5L220.9,176.5z"/>
</g>
</svg>
